<?xml version="1.0" standalone="no"?>
<!DOCTYPE svg PUBLIC "-//W3C//DTD SVG 20010904//EN"
 "http://www.w3.org/TR/2001/REC-SVG-20010904/DTD/svg10.dtd">
<svg version="1.0" xmlns="http://www.w3.org/2000/svg"
 width="348.000000pt" height="350.000000pt" viewBox="0 0 348.000000 350.000000"
 preserveAspectRatio="xMidYMid meet">

<g transform="translate(0.000000,350.000000) scale(0.100000,-0.100000)"
>
<path d="M300 3163 c-72 -70 -130 -132 -130 -138 0 -5 291 -301 647 -657 l648
-648 -648 -648 c-356 -356 -647 -652 -647 -657 0 -14 255 -265 269 -265 6 0
302 291 657 646 l647 646 646 -646 c355 -355 651 -646 656 -646 15 0 265 253
265 268 0 7 -288 300 -640 653 -352 352 -640 644 -640 649 0 5 288 298 640
650 352 352 640 645 640 653 0 14 -250 267 -265 267 -6 0 -298 -288 -650 -640
-352 -352 -645 -640 -652 -640 -7 0 -301 288 -653 640 -352 352 -644 640 -650
640 -5 0 -69 -57 -140 -127z"/>
</g>
</svg>
