<?xml version="1.0" standalone="no"?>
<!DOCTYPE svg PUBLIC "-//W3C//DTD SVG 20010904//EN"
 "http://www.w3.org/TR/2001/REC-SVG-20010904/DTD/svg10.dtd">
<svg version="1.0" xmlns="http://www.w3.org/2000/svg"
 width="186.000000pt" height="196.000000pt" viewBox="0 0 186.000000 196.000000"
 preserveAspectRatio="xMidYMid meet">

<g transform="translate(0.000000,196.000000) scale(0.100000,-0.100000)"
>
<path d="M853 1813 c-12 -2 -38 -22 -58 -45 -32 -35 -40 -39 -60 -30 -13 6
-37 7 -57 3 -71 -16 -108 -59 -108 -125 l0 -34 -54 2 c-63 1 -101 -20 -128
-75 -16 -30 -18 -68 -18 -334 0 -624 50 -846 211 -928 113 -58 347 -59 463 -3
91 44 137 102 246 301 18 33 36 65 40 70 4 6 38 69 75 140 37 72 81 154 96
183 22 40 29 67 29 107 0 48 -4 58 -34 88 -36 37 -71 48 -122 40 -43 -7 -78
-38 -113 -103 -16 -30 -34 -56 -40 -58 -8 -3 -11 81 -11 282 l0 286 -34 37
c-31 34 -38 37 -92 38 l-59 1 -5 40 c-13 90 -76 135 -167 117z m88 -80 c11
-13 15 -88 19 -357 l5 -341 25 0 25 0 5 261 c4 201 8 265 19 277 17 22 69 22
93 0 17 -15 18 -39 18 -353 0 -372 4 -350 -62 -350 -43 0 -152 -55 -194 -98
-67 -68 -92 -162 -43 -162 13 0 26 14 39 43 42 89 130 146 241 156 37 4 70 9
72 11 3 3 35 64 71 135 37 72 74 136 83 143 24 17 73 15 95 -5 10 -9 18 -29
18 -46 0 -27 -102 -235 -195 -397 -20 -36 -55 -99 -77 -140 -68 -127 -138
-197 -229 -228 -46 -15 -249 -16 -303 0 -93 27 -152 92 -177 196 -18 75 -37
199 -43 282 -4 65 -10 639 -7 708 1 21 40 52 66 52 13 0 33 -10 45 -22 19 -21
20 -34 20 -245 l0 -223 30 0 30 0 0 300 0 301 25 24 c29 30 58 32 85 5 19 -19
20 -33 20 -302 0 -156 3 -293 6 -305 7 -27 48 -32 58 -7 3 9 6 162 6 342 0
289 2 327 17 344 20 23 76 24 94 1z"/>
</g>
</svg>
