<?xml version="1.0" standalone="no"?>
<!DOCTYPE svg PUBLIC "-//W3C//DTD SVG 20010904//EN"
 "http://www.w3.org/TR/2001/REC-SVG-20010904/DTD/svg10.dtd">
<svg version="1.0" xmlns="http://www.w3.org/2000/svg"
 width="182.000000pt" height="200.000000pt" viewBox="0 0 182.000000 200.000000"
 preserveAspectRatio="xMidYMid meet">

<g transform="translate(0.000000,200.000000) scale(0.100000,-0.100000)"
>
<path d="M935 1508 c-16 -12 -33 -27 -37 -32 -4 -6 -27 -3 -60 7 -62 19 -117
11 -153 -23 -16 -15 -29 -19 -49 -14 -14 3 -29 10 -32 15 -9 15 -87 9 -124 -9
-67 -33 -71 -51 -71 -319 1 -226 7 -315 32 -463 44 -257 114 -355 294 -411 24
-7 99 -13 185 -13 125 0 155 3 214 22 161 54 255 165 351 417 43 115 50 149
49 255 0 88 -4 112 -22 150 -29 57 -39 69 -84 104 l-38 28 0 85 c0 101 -21
149 -80 182 -47 26 -89 27 -135 1 l-35 -20 -47 30 c-58 37 -114 40 -158 8z
m105 -48 c5 0 18 -10 30 -22 15 -16 20 -35 20 -76 l0 -54 -32 8 c-18 4 -54 7
-80 6 l-48 -2 0 48 c0 38 5 53 23 69 26 24 47 33 65 27 8 -2 18 -4 22 -4z
m230 -25 c39 -20 56 -58 55 -125 0 -63 -11 -70 -79 -50 -79 23 -83 27 -88 64
-5 48 14 91 49 110 35 19 29 19 63 1z m-423 -44 c26 -39 30 -95 11 -166 -9
-34 -9 -55 -1 -86 8 -30 8 -51 0 -73 -15 -45 -31 -56 -76 -56 -31 0 -44 6 -60
26 -19 24 -21 40 -21 184 0 145 2 159 21 184 18 23 28 27 62 24 34 -2 45 -9
64 -37z m-264 7 c42 -22 46 -38 47 -169 0 -137 -3 -145 -62 -168 -22 -8 -33
-6 -60 12 l-33 23 -3 131 -3 131 31 26 c35 29 51 32 83 14z m502 -158 c17 -5
62 -18 100 -29 208 -58 218 -63 261 -137 25 -42 26 -50 22 -152 -5 -123 -31
-210 -103 -349 -108 -208 -200 -263 -437 -263 -168 0 -254 25 -319 91 -64 65
-96 179 -130 459 -13 110 -10 147 11 140 21 -6 100 -4 131 5 21 5 33 1 60 -24
54 -50 129 -54 190 -10 l29 20 28 -20 c16 -11 48 -21 73 -23 38 -3 44 -6 41
-23 -2 -11 -6 -57 -9 -103 -5 -75 -3 -88 22 -137 29 -61 66 -95 101 -95 34 0
31 30 -6 71 -61 68 -74 141 -44 245 16 57 36 84 60 84 18 0 19 49 2 54 -7 2
-29 8 -48 13 -19 6 -55 16 -80 23 -82 23 -101 33 -115 61 -21 40 -19 53 15 89
28 30 34 32 73 26 23 -4 56 -11 72 -16z"/>
</g>
</svg>
