<?xml version="1.0" standalone="no"?>
<!DOCTYPE svg PUBLIC "-//W3C//DTD SVG 20010904//EN"
 "http://www.w3.org/TR/2001/REC-SVG-20010904/DTD/svg10.dtd">
<svg version="1.0" xmlns="http://www.w3.org/2000/svg"
 width="178.000000pt" height="192.000000pt" viewBox="0 0 178.000000 192.000000"
 preserveAspectRatio="xMidYMid meet">

<g transform="translate(0.000000,192.000000) scale(0.100000,-0.100000)"
>
<path d="M764 1791 c-60 -36 -64 -77 -33 -336 20 -170 23 -159 -41 -163 -39
-2 -64 -10 -87 -28 -31 -23 -34 -24 -62 -9 -67 34 -153 8 -187 -57 -32 -60
-16 -420 28 -633 25 -121 60 -196 116 -247 68 -62 134 -84 272 -94 263 -18
411 64 526 291 71 141 89 203 89 305 0 115 -27 171 -112 228 -17 12 -38 22
-47 22 -31 0 -30 9 4 340 33 318 32 333 -25 378 -50 40 -151 24 -183 -29 -7
-11 -18 -53 -24 -94 -6 -41 -15 -75 -20 -75 -4 0 -8 24 -8 54 0 104 -49 166
-132 166 -24 0 -56 -8 -74 -19z m122 -67 c11 -15 20 -59 25 -107 9 -101 27
-271 37 -352 6 -52 10 -60 29 -63 28 -4 40 22 48 110 25 275 44 400 63 421 20
23 65 22 87 -3 19 -21 19 -66 -5 -275 -5 -49 -14 -141 -20 -203 -6 -63 -15
-122 -20 -132 -11 -20 -14 -20 -124 12 -38 11 -92 20 -121 20 l-52 1 -11 76
c-6 42 -16 128 -22 191 -6 63 -16 145 -21 182 -17 108 0 147 63 148 19 0 33
-8 44 -26z m-161 -500 c39 -15 59 -113 33 -169 -9 -19 -8 -37 2 -79 11 -45 11
-61 0 -86 -27 -66 -103 -72 -135 -11 -21 42 -22 269 0 311 19 37 57 50 100 34z
m-222 -26 c41 -21 46 -39 47 -154 0 -97 -2 -113 -20 -132 -27 -28 -79 -29
-108 -2 -20 19 -22 30 -21 128 0 121 5 139 40 158 30 17 35 17 62 2z m449
-117 c27 -10 63 -20 178 -52 133 -36 181 -78 197 -173 17 -108 -99 -381 -204
-477 -72 -67 -147 -89 -295 -89 -140 0 -209 16 -270 63 -73 57 -101 130 -134
346 -20 137 -21 132 25 125 22 -3 55 -1 76 6 34 11 39 10 63 -13 57 -52 113
-61 170 -27 28 17 63 61 76 95 2 6 11 5 25 -2 11 -7 30 -13 41 -13 14 0 25
-12 37 -37 39 -90 60 -127 94 -161 43 -45 82 -67 103 -59 27 11 18 39 -26 76
-38 32 -98 114 -98 133 0 4 32 8 72 8 61 0 76 4 105 26 24 18 33 33 31 47 -4
30 -32 33 -64 8 -34 -26 -77 -27 -162 -1 -37 12 -84 26 -106 32 -21 7 -45 22
-53 35 -19 28 -11 80 15 99 20 15 71 18 104 5z"/>
</g>
</svg>
